<svg width="120" height="120" viewBox="0 0 120 120" fill="none" xmlns="http://www.w3.org/2000/svg">
<path d="M119.524 60C119.524 92.875 92.875 119.524 60 119.524C27.125 119.524 0.476191 92.875 0.476191 60C0.476191 27.125 27.125 0.476191 60 0.476191C92.875 0.476191 119.524 27.125 119.524 60Z" fill="#E6E6E6"/>
<g opacity="0.1">
<path d="M75.4613 91.0417C72.3601 100.033 68.0476 109.631 62.6071 119.396C75.7053 118.827 87.7054 114.074 97.2768 106.375C99.7946 98.8185 101.437 91.3006 102.122 84.0149C106.554 83.4196 111.06 82.4256 115.607 81.0833C117.687 75.5923 118.979 69.7024 119.339 63.5685C116.783 64.2143 114.262 64.7054 111.783 65.1042C101.735 76.1458 89.375 85.0327 75.4613 91.0417Z" fill="#1E75BA"/>
<path d="M111.786 65.1012C108.402 65.6429 105.08 65.9911 101.878 66.0952C101.568 63.6786 101.089 61.3423 100.536 59.0417C99.1399 53.2798 96.9822 47.9583 94.1161 43.1905C89.8274 47 85.256 50.6191 80.4613 54.0536C81.003 56.9345 81.2619 60.1131 81.1458 63.5863C77.7619 62.5387 74.8036 61.1845 72.2708 59.622C70.3066 60.8631 68.3066 62.0774 66.2768 63.2381C62.5179 65.4077 58.7083 67.3988 54.8839 69.2441C55.1429 69.5417 55.375 69.8512 55.6458 70.1488C59.3006 74.2827 63.7202 77.4851 68.6935 79.8363C71.6012 81.2054 74.6875 82.2917 77.9435 83.0655C77.247 85.6607 76.4078 88.3095 75.4762 91.0238C89.375 85.0327 101.735 76.1458 111.786 65.1012Z" fill="#01828E"/>
<path d="M70.9286 23.9077C70.0506 23.5982 69.1726 23.2887 68.2798 23.0298C73.2411 18.6131 80.5506 14.8006 90.4851 12.0893C91.5059 11.8185 92.5387 11.378 93.5863 10.875C91.8155 9.66071 89.9553 8.5625 88.0565 7.54167C83.0178 4.85417 77.5417 2.90476 71.7798 1.74107C69.4554 1.27679 67.0893 0.901786 64.6756 0.708334C62.5833 3.14881 60.6577 5.55357 58.8125 7.92857C55.3363 12.4375 52.3006 16.8542 49.9375 21.2083C46.1905 21.4792 42.381 22.1399 38.5446 23.1339C26.5327 26.2351 14.3125 32.744 3.19048 42.1756C2.82738 43.3631 2.51786 44.5536 2.22024 45.7679C1.09524 50.3244 0.476191 55.0923 0.476191 60C0.476191 65.1667 1.1875 70.1399 2.44048 74.9077C2.94345 76.8065 3.5 78.6786 4.17262 80.5C17.2321 64.0833 31.2738 51.5119 43.7917 44.5387C43.8185 45.0179 43.8958 45.4821 43.9464 45.9464C50.119 34.8482 63.5387 33.4167 70.9286 23.9077Z" fill="#4AAE52"/>
<path d="M81.1339 29.1667C80.9405 29.0387 80.7857 28.8839 80.5923 28.753C77.5446 26.7113 74.3006 25.122 70.9286 23.9077C63.5387 33.4018 50.119 34.8482 43.9435 45.9464C44.3958 50.5327 45.7649 55.1309 48.2708 59.7798C49.9643 62.9048 52.1577 66.0565 54.8839 69.247C58.7083 67.3988 62.5179 65.4226 66.2768 63.253C68.3036 62.0774 70.3065 60.8631 72.2708 59.622C70.3214 58.4077 68.6012 57.0893 67.2589 55.6429C64.5327 52.6726 62.5952 49.494 61.4345 46.2381C60.5446 43.7054 60.1042 41.122 60.2202 38.5536C63.3839 38.1518 66.2649 38.3988 68.875 39.1994C70.2946 39.625 71.6667 40.1815 72.8929 41.0089C76.8839 43.6815 79.3512 48.2054 80.4613 54.0565C85.253 50.619 89.8274 47.003 94.1161 43.1935C90.7827 37.6518 86.4821 32.872 81.1339 29.1667Z" fill="#209673"/>
</g>
<path d="M31.1639 100.823C30.9212 100.724 30.6896 100.577 30.4872 100.379C29.7683 99.6701 29.6528 98.5441 30.2242 97.7071L51.5844 66.1386L34.5633 59.1945C33.8431 58.9006 33.3443 58.2373 33.2705 57.4643C33.1892 56.6882 33.5501 55.9334 34.1932 55.506L86.9851 20.4441C87.8282 19.8949 88.9314 20.0089 89.6321 20.7193C90.3404 21.4327 90.4468 22.5374 89.8861 23.3699L68.5184 54.9353L83.5985 61.0876C84.3036 61.3752 84.8055 62.031 84.893 62.7919C84.9805 63.5528 84.6409 64.2986 84.0175 64.7429L33.1665 100.597C32.5599 101.021 31.8083 101.086 31.1639 100.823Z" fill="url(#paint0_linear)"/>
<defs>
<linearGradient id="paint0_linear" x1="77.2927" y1="15.5028" x2="40.8691" y2="104.783" gradientUnits="userSpaceOnUse">
<stop offset="0.34375" stop-color="#4AAE52"/>
<stop offset="0.661458" stop-color="#1E75BA"/>
</linearGradient>
</defs>
</svg>
